#format: frame checksums
#version: 2
#hash: MD5
#tb 0: 1001/30000
#media_type 0: video
#codec_id 0: rawvideo
#dimensions 0: 8x32
#sar 0: 1/1
#stream#, dts,        pts, duration,     size, hash
0,          0,          0,        1,      384, f92a7777fd69aa2f2914d9a41c4828ba
0,          1,          1,        1,      384, 62e1cc73487d2249a88a60e35a22d9c7
0,          2,          2,        1,      384, aa2619b605cb65eda15fdd99d5775550
0,          3,          3,        1,      384, e6f0a491c543b835d0cefe5ca62c3dbe
0,          4,          4,        1,      384, 361be1a06913c398f09494ca1b2d288f
0,          5,          5,        1,      384, 0497bf849a973357c0ccb8d43f5bd8b4
0,          6,          6,        1,      384, 5ac6ac523147c409dd00820622161dd7
0,          7,          7,        1,      384, 7d07245574a46c524360f09be29a5f19
0,          8,          8,        1,      384, fcfa7fbcaf42f81e4e34a4ee5a029ca1
0,          9,          9,        1,      384, 336e3fe4f15d3d6c82d82b1855dcfeb4
